<svg xmlns="http://www.w3.org/2000/svg" viewBox="0 0 76.66 66.53"><title>Asset 9</title><path d="M32.56,21.53h-4.3c-3.7,0-6.7-2.5-6.7-5.5a1,1,0,0,1,1-1h15.7a1,1,0,0,1,1,1C39.36,19.13,36.26,21.53,32.56,21.53Zm-8.7-4.4a4.74,4.74,0,0,0,4.4,2.4h4.3a4.74,4.74,0,0,0,4.4-2.4Z" fill="#353636"/><rect x="15.76" y="55.24" width="29.1" height="2.1" fill="#353636"/><path d="M33.76,27.24h-6.9a1,1,0,0,1-1-1v-5.7a1,1,0,0,1,1-1h6.9a1,1,0,0,1,1,1v5.6A1,1,0,0,1,33.76,27.24Zm-5.9-2.1h4.9v-3.6h-4.9Z" fill="#353636"/><path d="M44.86,66.53H15.76a1,1,0,0,1-1-1V36.74a11.61,11.61,0,0,1,11.6-11.6h8a11.24,11.24,0,0,1,5.9,1.7l-1.1,1.8a9.58,9.58,0,0,0-4.9-1.4h-8a9.5,9.5,0,0,0-9.5,9.5v27.8h27V36.74a9.06,9.06,0,0,0-1.8-5.5l1.7-1.2a11.56,11.56,0,0,1,2.1,6.7v28.8A.83.83,0,0,1,44.86,66.53Z" fill="#353636"/><path d="M42.06,31.24a9.36,9.36,0,0,0-2.9-2.7l1.1-1.8a10.74,10.74,0,0,1,3.5,3.2Z" fill="#353636"/><rect x="7.16" y="28.13" width="2.1" height="38.4" fill="#353636"/><path d="M10.36,30.24H6a1,1,0,0,1-1-1V15.53a1,1,0,0,1,1-1h4.4a1,1,0,0,1,1,1v13.7A1.08,1.08,0,0,1,10.36,30.24ZM7,28.13h2.4V16.43H7Z" fill="#353636"/><path d="M16.76,64.24H7A7,7,0,0,1,1.06,60a9.45,9.45,0,0,1,.8-10c2.9-3.9,11.7-15.9,13.2-25.3,1.4-9.2,1.5-20.4-.9-22.5a.92.92,0,0,0-1-.2c-3.7,1-4.2,10.2-4.1,13.4v1l-2.1.1v-1c0-1.4-.3-13.7,5.6-15.4a3,3,0,0,1,2.9.6c3.7,3.2,2.6,17.3,1.6,24.3-1.4,8.9-8.4,19.2-13.6,26.2a7.45,7.45,0,0,0-.6,7.8,4.88,4.88,0,0,0,4,3.1h9.8v2.1Z" fill="#353636"/><path d="M75.66,52.74H45.46v-2.1h29l-5.6-38.9H37.06l-.7,4.5-2-.3.8-5.4a1.06,1.06,0,0,1,1-.9h33.6a1.06,1.06,0,0,1,1,.9l5.9,41a1.08,1.08,0,0,1-.2.8A1.23,1.23,0,0,1,75.66,52.74Z" fill="#353636"/><path d="M45.06,23.13a3.9,3.9,0,0,1-3.9-3.9,3.9,3.9,0,1,1,3.9,3.9Zm0-5.7a1.8,1.8,0,1,0,1.8,1.8A1.79,1.79,0,0,0,45.06,17.43Z" fill="#353636"/><path d="M59.86,23.13a3.9,3.9,0,0,1-3.9-3.9,3.9,3.9,0,1,1,3.9,3.9Zm0-5.7a1.8,1.8,0,1,0,1.8,1.8A1.79,1.79,0,0,0,59.86,17.43Z" fill="#353636"/><path d="M61,19.43h-2.1V7.53a2.11,2.11,0,0,0-2.1-2.1h-8.5a2.11,2.11,0,0,0-2.1,2.1v11.9h-2.1V7.53a4.23,4.23,0,0,1,4.2-4.2h8.5A4.23,4.23,0,0,1,61,7.53v11.9Z" fill="#353636"/></svg>