<svg xmlns="http://www.w3.org/2000/svg" viewBox="0 0 54.3 52.35"><title>Asset 5</title><path d="M51,43.6H48.8V41.4H51a1.11,1.11,0,0,0,1.1-1.1V3.3A1.11,1.11,0,0,0,51,2.2H3.3A1.11,1.11,0,0,0,2.2,3.3v37a1.11,1.11,0,0,0,1.1,1.1H31.4v2.2H3.3A3.33,3.33,0,0,1,0,40.3V3.3A3.33,3.33,0,0,1,3.3,0H51a3.33,3.33,0,0,1,3.3,3.3v37A3.33,3.33,0,0,1,51,43.6Z" fill="#353636"/><path d="M28.2,38.1H12.1A1.11,1.11,0,0,1,11,37a4.37,4.37,0,0,0-4.4-4.4,1.11,1.11,0,0,1-1.1-1.1V11.9a1.11,1.11,0,0,1,1.1-1.1A4.37,4.37,0,0,0,11,6.4a1.11,1.11,0,0,1,1.1-1.1H42.4a1.11,1.11,0,0,1,1.1,1.1,4.37,4.37,0,0,0,4.4,4.4A1.11,1.11,0,0,1,49,11.9v9.8H46.7V12.9a6.71,6.71,0,0,1-5.4-5.4H13a6.71,6.71,0,0,1-5.4,5.4V30.5A6.71,6.71,0,0,1,13,35.9H28.1v2.2Z" fill="#353636"/><path d="M40.1,42.5a9.8,9.8,0,1,1,9.8-9.8A9.82,9.82,0,0,1,40.1,42.5Zm0-17.4a7.6,7.6,0,1,0,7.6,7.6A7.47,7.47,0,0,0,40.1,25.1Z" fill="#353636"/><path d="M45.6,52.3a1.85,1.85,0,0,1-.7-.2l-4.8-3.8-4.8,3.8a1,1,0,0,1-1.5-.2.84.84,0,0,1-.2-.7v-12h2.2v9.7L39.5,46a1.2,1.2,0,0,1,1.4,0l3.7,2.9V39.2h2.2v12A1.28,1.28,0,0,1,45.6,52.3Z" fill="#353636"/><path d="M39.1,17.4H15.4a1.11,1.11,0,0,1-1.1-1.1V11.9a1.11,1.11,0,0,1,1.1-1.1H39.1a1.11,1.11,0,0,1,1.1,1.1v4.4C40.1,17,39.7,17.4,39.1,17.4ZM16.4,15.3H38V13.1H16.4v2.2Z" fill="#353636"/><path d="M13.1,20.7h2.2v2.2H13.1Z" fill="#353636"/><path d="M17.5,20.7h2.2v2.2H17.5Z" fill="#353636"/><path d="M13.1,25.1h15v2.2h-15V25.1Z" fill="#353636"/><path d="M40.1,38.1a5.4,5.4,0,1,1,5.4-5.4A5.26,5.26,0,0,1,40.1,38.1Zm0-8.7a3.3,3.3,0,1,0,3.3,3.3A3.33,3.33,0,0,0,40.1,29.4Z" fill="#353636"/><path d="M5.5,36H7.7v2.2H5.5Z" fill="#353636"/><path d="M46.7,5.5h2.2V7.7H46.7Z" fill="#353636"/><path d="M5.5,5.5H7.7V7.7H5.5Z" fill="#353636"/></svg>