<svg xmlns="http://www.w3.org/2000/svg" viewBox="0 0 59.11 57"><title>Asset 10</title><path d="M6.7,27.6H4.9A4.91,4.91,0,0,1,0,22.7v-.2L2.7,6.1a1.06,1.06,0,0,1,1-.9h8.6a1,1,0,0,1,1,1,1.08,1.08,0,0,1-1,1H4.6L2,22.6a2.78,2.78,0,0,0,2.8,2.7H6.6a2.8,2.8,0,0,0,2.8-2.8,1,1,0,0,1,1-1,1.08,1.08,0,0,1,1,1A4.68,4.68,0,0,1,6.7,27.6Z" fill="#353636"/><path d="M12.4,6.3" fill="none" stroke="#353636" stroke-linecap="round" stroke-linejoin="round" stroke-width="3"/><path d="M16.2,27.6H14.4a4.91,4.91,0,0,1-4.9-4.9,1,1,0,0,1,1-1,1.08,1.08,0,0,1,1,1,2.8,2.8,0,0,0,2.8,2.8h1.8a2.8,2.8,0,0,0,2.8-2.8,1,1,0,0,1,1-1,1.08,1.08,0,0,1,1,1A4.62,4.62,0,0,1,16.2,27.6Z" fill="#353636"/><path d="M10.5,23.7h-.1a1,1,0,0,1-.9-1.1L11.3,6.2a1,1,0,0,1,2,.2L11.5,22.8C11.5,23.4,11.1,23.7,10.5,23.7Z" fill="#353636"/><path d="M25.8,27.6H24a4.91,4.91,0,0,1-4.9-4.9,1,1,0,0,1,1-1,1.08,1.08,0,0,1,1,1,2.8,2.8,0,0,0,2.8,2.8h1.8a2.8,2.8,0,0,0,2.8-2.8,1,1,0,0,1,1-1,1.08,1.08,0,0,1,1,1A4.62,4.62,0,0,1,25.8,27.6Z" fill="#353636"/><path d="M20.1,23.7h0a1,1,0,0,1-1-1.1L19.8,10a1.05,1.05,0,0,1,2.1.1l-.7,12.6A1.16,1.16,0,0,1,20.1,23.7Z" fill="#353636"/><path d="M20.8,10.1" fill="none" stroke="#353636" stroke-linecap="round" stroke-linejoin="round" stroke-width="3"/><path d="M35.3,27.6H33.5a4.91,4.91,0,0,1-4.9-4.9,1,1,0,0,1,1-1,1.08,1.08,0,0,1,1,1,2.8,2.8,0,0,0,2.8,2.8h1.8A2.8,2.8,0,0,0,38,22.7a1,1,0,0,1,1-1,1.08,1.08,0,0,1,1,1A4.62,4.62,0,0,1,35.3,27.6Z" fill="#353636"/><path d="M29.6,23.7a1,1,0,0,1-1-1V10.1a1,1,0,0,1,1-1,1.08,1.08,0,0,1,1,1V22.7C30.7,23.3,30.2,23.7,29.6,23.7Z" fill="#353636"/><path d="M29.6,10.1" fill="none" stroke="#353636" stroke-linecap="round" stroke-linejoin="round" stroke-width="3"/><path d="M44.8,27.6H43a4.91,4.91,0,0,1-4.9-4.9,1,1,0,0,1,1-1,1.08,1.08,0,0,1,1,1,2.8,2.8,0,0,0,2.8,2.8h1.8a2.8,2.8,0,0,0,2.8-2.8,1,1,0,0,1,1-1,1.08,1.08,0,0,1,1,1A4.62,4.62,0,0,1,44.8,27.6Z" fill="#353636"/><path d="M46.9,6.3" fill="none" stroke="#353636" stroke-linecap="round" stroke-linejoin="round" stroke-width="3"/><path d="M38.5,10.1" fill="none" stroke="#353636" stroke-linecap="round" stroke-linejoin="round" stroke-width="3"/><path d="M39.2,23.7a1,1,0,0,1-1-1l-.7-12.6a1.05,1.05,0,0,1,2.1-.1l.7,12.6a1.18,1.18,0,0,1-1.1,1.1Z" fill="#353636"/><path d="M54.4,27.6H52.6a4.91,4.91,0,0,1-4.9-4.9,1,1,0,0,1,1-1,1.08,1.08,0,0,1,1,1,2.8,2.8,0,0,0,2.8,2.8h1.8a2.78,2.78,0,0,0,2.8-2.7L54.5,7.4H47.2a1,1,0,0,1-1-1,1.08,1.08,0,0,1,1-1h8.2a1.06,1.06,0,0,1,1,.9l2.7,16.4v.2A4.57,4.57,0,0,1,54.4,27.6Z" fill="#353636"/><path d="M47.3,10.1" fill="none" stroke="#353636" stroke-linecap="round" stroke-linejoin="round" stroke-width="3"/><path d="M48.7,23.7a1,1,0,0,1-1-.9L46.3,10.2a1,1,0,1,1,2-.2l1.4,12.6a.9.9,0,0,1-.9,1.1Z" fill="#353636"/><path d="M55.3,57H50a1,1,0,0,1-1-1,1.08,1.08,0,0,1,1-1h4.3V26.6a1,1,0,0,1,1-1,1.08,1.08,0,0,1,1,1V56A1,1,0,0,1,55.3,57Z" fill="#353636"/><path d="M40.7,57H3.9a1,1,0,0,1-1-1V27.1a1,1,0,0,1,1-1,1.08,1.08,0,0,1,1,1V54.9H40.7a1,1,0,0,1,1,1A1.09,1.09,0,0,1,40.7,57Z" fill="#353636"/><path d="M33.9,47.8H10.5l-1-1V32.7l1-1H33.9l1,1V46.8ZM11.6,45.7H32.9v-12H11.6Z" fill="#353636"/><path d="M49.1,57a1,1,0,0,1-1-1V33.7H40.9V56a1,1,0,0,1-1,1,1.08,1.08,0,0,1-1-1V31.6H50.2V56A1.27,1.27,0,0,1,49.1,57Z" fill="#353636"/><path d="M50,57H40.7a1,1,0,0,1-1-1,1.08,1.08,0,0,1,1-1h9.2a1,1,0,0,1,1,1A.92.92,0,0,1,50,57Z" fill="#353636"/><path d="M47.3,11.1a1,1,0,0,1-1-1V6.3a1,1,0,0,1,1-1,1.08,1.08,0,0,1,1,1v3.8A1,1,0,0,1,47.3,11.1Z" fill="#353636"/><path d="M20.8,11.1H12.4a1,1,0,0,1-1-1V6.3a1,1,0,0,1,1-1,1.08,1.08,0,0,1,1,1V9h7.4a1,1,0,0,1,1,1A1.09,1.09,0,0,1,20.8,11.1Z" fill="#353636"/><path d="M47.3,7.3a1,1,0,0,1-1-1V2H13.4V6.3a1,1,0,0,1-1,1,1.08,1.08,0,0,1-1-1V1a1,1,0,0,1,1-1H47.3a1,1,0,0,1,1,1V6.3A.94.94,0,0,1,47.3,7.3Z" fill="#353636"/><path d="M29.6,11.1H20.8a1,1,0,0,1-1-1,1.08,1.08,0,0,1,1-1h8.8a1,1,0,1,1,0,2Z" fill="#353636"/><path d="M38.5,11.1H29.7a1,1,0,0,1-1-1,1.08,1.08,0,0,1,1-1h8.8a1,1,0,0,1,1,1A1.08,1.08,0,0,1,38.5,11.1Z" fill="#353636"/><path d="M38.5,11.1V9h8.8a1,1,0,0,1,0,2Z" fill="#353636"/></svg>