<svg xmlns="http://www.w3.org/2000/svg" viewBox="0 0 54.74 52.2"><title>Asset 7</title><path d="M17.7,10.7a1.06,1.06,0,1,0-1.5,0A.94.94,0,0,0,17.7,10.7Z" fill="#353636"/><path d="M.1,42.5a.85.85,0,0,0,.8.7l6.2,1.2a.55.55,0,0,1,.5.3c.2.2.3.3.3.5l1.2,6.2a1.14,1.14,0,0,0,.7.8h.3a1.14,1.14,0,0,0,.8-.3L22.5,40.2a20.31,20.31,0,0,0,9.8,0L43.9,51.9a1.14,1.14,0,0,0,.8.3H45a.85.85,0,0,0,.7-.8l1.2-6.2a.86.86,0,0,1,.3-.6c.2-.2.3-.3.5-.3l6.2-1.2a1.14,1.14,0,0,0,.8-.7,1.13,1.13,0,0,0-.3-1.1l-9.9-10a20,20,0,0,0,3.1-10.9,20.4,20.4,0,1,0-40.8,0A20.89,20.89,0,0,0,9.9,31.3L0,41.3C.1,41.7,0,42.1.1,42.5Zm47.4-.1a6.37,6.37,0,0,0-.7.2l-3.4-3.5a1.06,1.06,0,0,0-1.5,1.5l3.4,3.5a6.89,6.89,0,0,0-.3.8l-.8,4.2-9.4-9.4a20.7,20.7,0,0,0,8.8-6.4l8.2,8.3Zm-20-40A18.2,18.2,0,0,1,45.7,20.6,18.48,18.48,0,0,1,42.5,31a18.59,18.59,0,0,1-10,7.2h0a16.79,16.79,0,0,1-5,.7,16.79,16.79,0,0,1-5-.7h0a18.1,18.1,0,0,1-10-7.2A18.48,18.48,0,0,1,9.3,20.6,18.2,18.2,0,0,1,27.5,2.4Zm-16,30.8a20.11,20.11,0,0,0,8.8,6.4L10.9,49l-.8-4.2a2.61,2.61,0,0,0-.3-.8l3.7-3.8A1.06,1.06,0,0,0,12,38.7L8.3,42.5a1.85,1.85,0,0,0-.7-.2l-4.2-.8Z" fill="#353636"/><path d="M38.2,16.7a1,1,0,0,0-.9-.7l-6.1-.9L28.5,9.5a1.1,1.1,0,0,0-1-.6h0a1.1,1.1,0,0,0-1,.6l-2.7,5.6-6.1.9a1.27,1.27,0,0,0-.9.7,1.13,1.13,0,0,0,.3,1.1l4.4,4.3-1,6.1a1,1,0,0,0,.4,1,1.1,1.1,0,0,0,1.1.1l5.5-2.9L33,29.3a.9.9,0,0,0,.5.1,1.42,1.42,0,0,0,.6-.2,1,1,0,0,0,.4-1l-1-6.1,4.4-4.3A1.19,1.19,0,0,0,38.2,16.7Zm-6.6,4.2a.91.91,0,0,0-.3,1l.8,4.5L28,24.3a.91.91,0,0,0-1,0l-4.1,2.1.8-4.5a1.31,1.31,0,0,0-.3-1l-3.3-3.2,4.5-.7c.3-.1.7-.3.8-.6l2-4.1,2,4.1a1.56,1.56,0,0,0,.8.6l4.5.7Z" fill="#353636"/><path d="M27.5,36.7A16.1,16.1,0,1,0,19.8,6.5a1.1,1.1,0,1,0,1.1,1.9,13.89,13.89,0,0,1,6.7-1.7,14,14,0,1,1-14,14A14.49,14.49,0,0,1,15.3,14a1.1,1.1,0,1,0-1.9-1.1A16,16,0,0,0,27.5,36.7Z" fill="#353636"/></svg>