<svg xmlns="http://www.w3.org/2000/svg" viewBox="0 0 55.9 55.7"><path d="M30.1,47H4.3A4.27,4.27,0,0,1,0,42.7V11.8A4.27,4.27,0,0,1,4.3,7.5h43a4.27,4.27,0,0,1,4.3,4.3v9.3l-2.2-.7V11.9a2.11,2.11,0,0,0-2.1-2.1H4.3a2.11,2.11,0,0,0-2.1,2.1V42.8a2.11,2.11,0,0,0,2.1,2.1H30.1V47Z" fill="#353636"/><path d="M37,8.3H34.8v-4a2.11,2.11,0,0,0-2.1-2.1H18.8a2.11,2.11,0,0,0-2.1,2.1v4H14.5v-4A4.27,4.27,0,0,1,18.8,0H32.7A4.27,4.27,0,0,1,37,4.3v4Z" fill="#353636"/><rect x="1.9" y="29.4" width="28.4" height="2.2" fill="#353636"/><rect x="21.8" y="20.9" width="8" height="2.2" fill="#353636"/><path d="M44.3,55.7a13.07,13.07,0,0,1-8.5-2.6,9.55,9.55,0,0,1-1.9-12.2,9.12,9.12,0,0,1,2.4-2.4,11.9,11.9,0,0,1-1.9-2A7.68,7.68,0,0,1,33.1,32a8.63,8.63,0,0,1,3.1-7.1,12,12,0,0,1,8-2.6,12,12,0,0,1,8,2.6A8.93,8.93,0,0,1,55.3,32,7.68,7.68,0,0,1,54,36.5a7.56,7.56,0,0,1-1.9,2.1,10,10,0,0,1,2.3,2.3,8.45,8.45,0,0,1,1.5,5,9.11,9.11,0,0,1-3.2,7.3C50.7,54.9,47.8,55.7,44.3,55.7Zm-.1-31.2a9.71,9.71,0,0,0-6.5,2,6.8,6.8,0,0,0-2.3,5.4,6,6,0,0,0,.9,3.3,6.48,6.48,0,0,0,2.6,2.3l2,1-2,1a7.24,7.24,0,0,0-3.1,2.6,7.22,7.22,0,0,0,1.4,9.3,10.93,10.93,0,0,0,7.1,2.1c3,0,5.4-.7,7-2.1a7,7,0,0,0,2.4-5.6,6.24,6.24,0,0,0-1.1-3.7,7.35,7.35,0,0,0-3-2.5l-2-1,1.9-1a7.32,7.32,0,0,0,2.6-2.3A6,6,0,0,0,53,32a6.8,6.8,0,0,0-2.3-5.4C49.2,25.1,47,24.5,44.2,24.5Zm.1,25.8a4.6,4.6,0,0,1-3.4-1.4,4.84,4.84,0,0,1-1.3-3.6,5.08,5.08,0,0,1,1.3-3.7,4.83,4.83,0,0,1,6.8,0A4.92,4.92,0,0,1,49,45.3a4.84,4.84,0,0,1-1.3,3.6A4.6,4.6,0,0,1,44.3,50.3Zm0-7.8a2.27,2.27,0,0,0-1.8.7,3.3,3.3,0,0,0-.7,2.1,2.82,2.82,0,0,0,.7,2.1,2.27,2.27,0,0,0,1.8.7,2.06,2.06,0,0,0,1.7-.7,3.3,3.3,0,0,0,.7-2.1,2.54,2.54,0,0,0-.7-2.1A2.06,2.06,0,0,0,44.3,42.5Zm0-5.5a3.56,3.56,0,0,1-3.1-1.5,5.86,5.86,0,0,1-1-3.3,4.83,4.83,0,0,1,1-3.3,3.72,3.72,0,0,1,3-1.4,3.53,3.53,0,0,1,3.1,1.4,4.83,4.83,0,0,1,1,3.3,5.82,5.82,0,0,1-.9,3.3A3.56,3.56,0,0,1,44.3,37Zm-.1-7.1a1.58,1.58,0,0,0-1.3.5,3.09,3.09,0,0,0-.5,1.9,3.94,3.94,0,0,0,.5,2,1.35,1.35,0,0,0,1.3.6,1.58,1.58,0,0,0,1.3-.5,3.68,3.68,0,0,0,.5-2,3.31,3.31,0,0,0-.5-1.9C45.4,30.2,45.1,29.9,44.2,29.9Z" fill="#353636"/></svg>