<svg xmlns="http://www.w3.org/2000/svg" viewBox="0 0 65.6 60.31"><title>Asset 1</title><path d="M28.78,6.28C22.73.2,12.67,1.56,7.29,9.29c-6.15,8.85-5.74,17.86-.53,27C12.71,46.69,23,52.48,31.86,59.69a3.61,3.61,0,0,0,5,.17c8.69-7.12,18.29-13.21,24.93-22.58A24.44,24.44,0,0,0,66.35,22.8c-.23-5.37-2.09-11.3-6.57-15.53a16.23,16.23,0,0,0-13-4.56c-4.41.32-7,3.05-9.79,5.7.93,2.91,3.41,3.94,4.76,5.93C37.21,19,30.65,20.58,25.28,24.71,30,29.14,36,30.78,40.78,34.28a15.08,15.08,0,0,1-2,6" transform="translate(-1.77 -1.48)" fill="none" stroke="#d75636" stroke-linecap="round" stroke-linejoin="round" stroke-width="2"/></svg>